<?xml version="1.0" encoding="UTF-8" standalone="no"?>
<!-- Created with Inkscape (http://www.inkscape.org/) -->

<svg
   version="1.1"
   id="svg2"
   xml:space="preserve"
   width="1150.7787"
   height="512.18402"
   viewBox="0 0 1150.7787 512.18402"
   sodipodi:docname="LOGO-TESA-MARGE.svg"
   inkscape:version="1.1.1 (3bf5ae0d25, 2021-09-20)"
   xmlns:inkscape="http://www.inkscape.org/namespaces/inkscape"
   xmlns:sodipodi="http://sodipodi.sourceforge.net/DTD/sodipodi-0.dtd"
   xmlns="http://www.w3.org/2000/svg"
   xmlns:svg="http://www.w3.org/2000/svg"><defs
     id="defs6"><clipPath
       clipPathUnits="userSpaceOnUse"
       id="clipPath20"><path
         d="M 0,384.138 H 863.084 V 0 H 0 Z"
         id="path18" /></clipPath></defs><sodipodi:namedview
     id="namedview4"
     pagecolor="#ffffff"
     bordercolor="#666666"
     borderopacity="1.0"
     inkscape:pageshadow="2"
     inkscape:pageopacity="0.0"
     inkscape:pagecheckerboard="0"
     showgrid="false"
     inkscape:zoom="0.98976459"
     inkscape:cx="575.38934"
     inkscape:cy="417.77611"
     inkscape:window-width="1920"
     inkscape:window-height="1129"
     inkscape:window-x="3448"
     inkscape:window-y="-8"
     inkscape:window-maximized="1"
     inkscape:current-layer="g8" /><g
     id="g8"
     inkscape:groupmode="layer"
     inkscape:label="LOGO-TESA"
     transform="matrix(1.3333333,0,0,-1.3333333,0,512.184)"><g
       id="g10"
       transform="translate(217.1209,271)"
       style="stroke:none;fill:#2264ad;fill-opacity:1"><path
         d="m 0,0 v -33.669 h -55.42 v -174.303 h -41.713 v 174.303 h -55.42 V 0 Z"
         style="fill:#2264ad;fill-opacity:1;fill-rule:nonzero;stroke:none"
         id="path12" /></g><g
       id="g22"
       transform="translate(343.8416,161.0552)"
       style="fill:#f08717;fill-opacity:1;stroke:none"><path
         d="m 0,0 c -0.199,10.726 -4.073,19.315 -11.619,25.773 -7.552,6.452 -16.788,9.684 -27.712,9.684 -10.329,0 -19.021,-3.129 -26.07,-9.387 C -72.453,19.814 -76.774,11.122 -78.361,0 Z M 42.013,-28.008 H -78.658 c 0.989,-11.918 5.16,-21.258 12.512,-28.008 7.348,-6.755 16.388,-10.13 27.115,-10.13 15.493,0 26.517,6.653 33.071,19.962 h 44.993 c -4.768,-15.893 -13.906,-28.952 -27.412,-39.18 -13.511,-10.233 -30.094,-15.344 -49.758,-15.344 -15.896,0 -30.145,3.523 -42.757,10.577 -12.617,7.048 -22.45,17.029 -29.497,29.944 -7.055,12.91 -10.578,27.807 -10.578,44.693 0,17.081 3.474,32.077 10.428,44.991 6.952,12.91 16.685,22.84 29.2,29.796 12.513,6.95 26.913,10.427 43.204,10.427 15.69,0 29.742,-3.379 42.16,-10.13 12.41,-6.754 22.047,-16.34 28.901,-28.752 6.853,-12.416 10.28,-26.667 10.28,-42.756 0,-5.96 -0.401,-11.322 -1.191,-16.09"
         style="fill:#f08717;fill-opacity:1;fill-rule:nonzero;stroke:none"
         id="path24" /></g><g
       id="g26"
       transform="translate(464.3474,66.7359)"
       style="stroke:none;fill:#2264ad;fill-opacity:1"><path
         d="m 0,0 c -11.628,4.965 -20.825,12.123 -27.583,21.469 -6.761,9.342 -10.239,20.375 -10.436,33.099 H 6.709 c 0.598,-8.549 3.626,-15.31 9.097,-20.277 5.465,-4.971 12.969,-7.454 22.51,-7.454 9.741,0 17.394,2.334 22.962,7.006 5.563,4.67 8.349,10.782 8.349,18.34 0,6.159 -1.891,11.229 -5.664,15.208 -3.778,3.974 -8.499,7.105 -14.165,9.392 -5.664,2.284 -13.47,4.818 -23.406,7.604 -13.523,3.975 -24.504,7.903 -32.951,11.778 -8.452,3.877 -15.707,9.739 -21.769,17.594 -6.066,7.85 -9.094,18.338 -9.094,31.458 0,12.324 3.078,23.059 9.244,32.206 6.157,9.141 14.807,16.149 25.941,21.021 11.132,4.87 23.856,7.307 38.169,7.307 21.469,0 38.914,-5.219 52.332,-15.655 13.418,-10.437 20.823,-25.001 22.216,-43.685 H 64.558 c -0.402,7.156 -3.43,13.069 -9.094,17.742 -5.666,4.669 -13.172,7.007 -22.514,7.007 -8.152,0 -14.662,-2.087 -19.532,-6.262 -4.873,-4.174 -7.304,-10.24 -7.304,-18.19 0,-5.566 1.833,-10.188 5.517,-13.865 3.675,-3.68 8.245,-6.662 13.716,-8.946 5.465,-2.288 13.166,-4.92 23.108,-7.901 13.516,-3.979 24.55,-7.955 33.1,-11.928 8.546,-3.98 15.903,-9.944 22.067,-17.891 6.157,-7.953 9.243,-18.39 9.243,-31.31 0,-11.136 -2.884,-21.47 -8.648,-31.012 C 98.449,14.313 90.002,6.709 78.87,1.043 67.736,-4.623 54.518,-7.455 39.212,-7.455 24.699,-7.455 11.631,-4.973 0,0"
         style="fill:#2264ad;fill-opacity:1;fill-rule:nonzero;stroke:none"
         id="path28" /></g><g
       id="g30"
       transform="translate(729.3914,136.0264)"
       style="stroke:none;fill:#2264ad;fill-opacity:1"><path
         d="M 0,0 -30.095,87.003 -60.186,0 Z M 11.321,-33.371 H -71.51 l -13.705,-39.628 h -43.798 l 74.786,208.27 H -5.659 L 69.124,-72.999 H 25.028 Z"
         style="fill:#2264ad;fill-opacity:1;fill-rule:nonzero;stroke:none"
         id="path32" /></g><g
       id="g34"
       transform="translate(390.7937,324.8569)"
       style="stroke:none;fill:#f08717;fill-opacity:1"><path
         d="m 0,0 -48.655,-59.143 h -75.514 L -73.261,0 Z"
         style="fill:#f08717;fill-opacity:1;fill-rule:nonzero;stroke:none"
         id="path36" /></g><g
       id="g38"
       transform="translate(410.9676,324.8569)"
       style="stroke:none;fill:#f08717;fill-opacity:1"><path
         d="M 0,0 -48.662,-59.143 H -63.681 L -12.772,0 Z"
         style="fill:#f08717;fill-opacity:1;fill-rule:nonzero;stroke:none"
         id="path40" /></g><g
       id="g42"
       transform="translate(424.8357,324.8569)"
       style="stroke:none;fill:#f08717;fill-opacity:1"><path
         d="m 0,0 -48.832,-59.143 h -7.73 L -7.891,0 Z"
         style="fill:#f08717;fill-opacity:1;fill-rule:nonzero;stroke:none"
         id="path44" /></g></g></svg>
